<mxfile host="app.diagrams.net" modified="2023-05-17T22:40:56.140Z" agent="Mozilla/5.0 (Windows NT 10.0; Win64; x64) AppleWebKit/537.36 (KHTML, like Gecko) Chrome/113.0.0.0 Safari/537.36" etag="hNqjdvAZMp_UlcXVerGu" version="21.3.2" type="device">
  <diagram name="PÃ¡gina-1" id="Fl1VQuVDwIB-qqrjikF6">
    <mxGraphModel dx="1050" dy="579" grid="1" gridSize="10" guides="1" tooltips="1" connect="1" arrows="1" fold="1" page="1" pageScale="1" pageWidth="1169" pageHeight="827" math="0" shadow="0">
      <root>
        <mxCell id="0" />
        <mxCell id="1" parent="0" />
        <mxCell id="lhDiDhDEh2ELUVJOqSsH-1" value="ChatMediator" style="swimlane;fontStyle=1;align=center;verticalAlign=top;childLayout=stackLayout;horizontal=1;startSize=26;horizontalStack=0;resizeParent=1;resizeParentMax=0;resizeLast=0;collapsible=1;marginBottom=0;whiteSpace=wrap;html=1;" parent="1" vertex="1">
          <mxGeometry x="940" y="190" width="190" height="60" as="geometry" />
        </mxCell>
        <mxCell id="lhDiDhDEh2ELUVJOqSsH-3" value="" style="line;strokeWidth=1;fillColor=none;align=left;verticalAlign=middle;spacingTop=-1;spacingLeft=3;spacingRight=3;rotatable=0;labelPosition=right;points=[];portConstraint=eastwest;strokeColor=inherit;" parent="lhDiDhDEh2ELUVJOqSsH-1" vertex="1">
          <mxGeometry y="26" width="190" height="8" as="geometry" />
        </mxCell>
        <mxCell id="lhDiDhDEh2ELUVJOqSsH-4" value="+ sendMessage(Message): void" style="text;strokeColor=none;fillColor=none;align=left;verticalAlign=top;spacingLeft=4;spacingRight=4;overflow=hidden;rotatable=0;points=[[0,0.5],[1,0.5]];portConstraint=eastwest;whiteSpace=wrap;html=1;" parent="lhDiDhDEh2ELUVJOqSsH-1" vertex="1">
          <mxGeometry y="34" width="190" height="26" as="geometry" />
        </mxCell>
        <mxCell id="lhDiDhDEh2ELUVJOqSsH-36" style="edgeStyle=orthogonalEdgeStyle;rounded=0;orthogonalLoop=1;jettySize=auto;html=1;startArrow=diamondThin;startFill=0;startSize=14;" parent="1" source="lhDiDhDEh2ELUVJOqSsH-9" target="lhDiDhDEh2ELUVJOqSsH-25" edge="1">
          <mxGeometry relative="1" as="geometry">
            <Array as="points">
              <mxPoint x="200" y="310" />
            </Array>
          </mxGeometry>
        </mxCell>
        <mxCell id="lhDiDhDEh2ELUVJOqSsH-40" style="edgeStyle=orthogonalEdgeStyle;rounded=0;orthogonalLoop=1;jettySize=auto;html=1;" parent="1" source="lhDiDhDEh2ELUVJOqSsH-9" target="lhDiDhDEh2ELUVJOqSsH-1" edge="1">
          <mxGeometry relative="1" as="geometry">
            <Array as="points">
              <mxPoint x="880" y="220" />
              <mxPoint x="880" y="220" />
            </Array>
          </mxGeometry>
        </mxCell>
        <mxCell id="lhDiDhDEh2ELUVJOqSsH-9" value="&lt;b&gt;&amp;lt;&amp;lt;abstract&amp;gt;&amp;gt;&lt;br&gt;User&lt;br&gt;&lt;/b&gt;" style="swimlane;fontStyle=0;childLayout=stackLayout;horizontal=1;startSize=30;fillColor=none;horizontalStack=0;resizeParent=1;resizeParentMax=0;resizeLast=0;collapsible=1;marginBottom=0;whiteSpace=wrap;html=1;" parent="1" vertex="1">
          <mxGeometry x="611" y="140" width="240" height="224" as="geometry" />
        </mxCell>
        <mxCell id="lhDiDhDEh2ELUVJOqSsH-10" value="+ mediator: ChatMediator&lt;br&gt;+ username: String&lt;br&gt;+ permissions: List&amp;lt;MessageType&amp;gt;&lt;br&gt;+ isBlocked: boolean" style="text;strokeColor=none;fillColor=none;align=left;verticalAlign=top;spacingLeft=4;spacingRight=4;overflow=hidden;rotatable=0;points=[[0,0.5],[1,0.5]];portConstraint=eastwest;whiteSpace=wrap;html=1;" parent="lhDiDhDEh2ELUVJOqSsH-9" vertex="1">
          <mxGeometry y="30" width="240" height="74" as="geometry" />
        </mxCell>
        <mxCell id="lhDiDhDEh2ELUVJOqSsH-11" value="+ hasPermission(MessageType): boolean&lt;br&gt;+ sendMessage(Message): void&lt;br&gt;+ receiveMessage(Message): void&lt;br&gt;+ getUsername(): void&lt;br&gt;+ block(): void&lt;br&gt;+ unblock(): void&lt;br&gt;+ isBlocked(): boolean" style="text;strokeColor=none;fillColor=none;align=left;verticalAlign=top;spacingLeft=4;spacingRight=4;overflow=hidden;rotatable=0;points=[[0,0.5],[1,0.5]];portConstraint=eastwest;whiteSpace=wrap;html=1;" parent="lhDiDhDEh2ELUVJOqSsH-9" vertex="1">
          <mxGeometry y="104" width="240" height="120" as="geometry" />
        </mxCell>
        <mxCell id="lhDiDhDEh2ELUVJOqSsH-30" style="edgeStyle=orthogonalEdgeStyle;rounded=0;orthogonalLoop=1;jettySize=auto;html=1;endArrow=block;endFill=0;endSize=12;" parent="1" source="lhDiDhDEh2ELUVJOqSsH-17" target="lhDiDhDEh2ELUVJOqSsH-9" edge="1">
          <mxGeometry relative="1" as="geometry">
            <Array as="points">
              <mxPoint x="640" y="440" />
              <mxPoint x="731" y="440" />
            </Array>
          </mxGeometry>
        </mxCell>
        <mxCell id="lhDiDhDEh2ELUVJOqSsH-17" value="ModeratorUser" style="swimlane;fontStyle=1;align=center;verticalAlign=middle;childLayout=stackLayout;horizontal=1;startSize=29;horizontalStack=0;resizeParent=1;resizeParentMax=0;resizeLast=0;collapsible=0;marginBottom=0;html=1;whiteSpace=wrap;" parent="1" vertex="1">
          <mxGeometry x="570" y="500" width="140" height="54" as="geometry" />
        </mxCell>
        <mxCell id="lhDiDhDEh2ELUVJOqSsH-32" style="edgeStyle=orthogonalEdgeStyle;rounded=0;orthogonalLoop=1;jettySize=auto;html=1;endArrow=block;endFill=0;endSize=12;" parent="1" source="lhDiDhDEh2ELUVJOqSsH-20" target="lhDiDhDEh2ELUVJOqSsH-9" edge="1">
          <mxGeometry relative="1" as="geometry">
            <Array as="points">
              <mxPoint x="860" y="440" />
              <mxPoint x="731" y="440" />
            </Array>
          </mxGeometry>
        </mxCell>
        <mxCell id="lhDiDhDEh2ELUVJOqSsH-20" value="CommonUser" style="swimlane;fontStyle=1;align=center;verticalAlign=middle;childLayout=stackLayout;horizontal=1;startSize=29;horizontalStack=0;resizeParent=1;resizeParentMax=0;resizeLast=0;collapsible=0;marginBottom=0;html=1;whiteSpace=wrap;" parent="1" vertex="1">
          <mxGeometry x="790" y="500" width="140" height="54" as="geometry" />
        </mxCell>
        <mxCell id="lhDiDhDEh2ELUVJOqSsH-35" style="edgeStyle=orthogonalEdgeStyle;rounded=0;orthogonalLoop=1;jettySize=auto;html=1;" parent="1" source="lhDiDhDEh2ELUVJOqSsH-21" target="lhDiDhDEh2ELUVJOqSsH-25" edge="1">
          <mxGeometry relative="1" as="geometry">
            <Array as="points">
              <mxPoint x="310" y="527" />
              <mxPoint x="310" y="527" />
            </Array>
          </mxGeometry>
        </mxCell>
        <mxCell id="lhDiDhDEh2ELUVJOqSsH-39" style="edgeStyle=orthogonalEdgeStyle;rounded=0;orthogonalLoop=1;jettySize=auto;html=1;" parent="1" source="lhDiDhDEh2ELUVJOqSsH-21" target="lhDiDhDEh2ELUVJOqSsH-9" edge="1">
          <mxGeometry relative="1" as="geometry">
            <Array as="points">
              <mxPoint x="415" y="420" />
              <mxPoint x="670" y="420" />
            </Array>
          </mxGeometry>
        </mxCell>
        <mxCell id="lhDiDhDEh2ELUVJOqSsH-21" value="Message" style="swimlane;fontStyle=1;align=center;verticalAlign=top;childLayout=stackLayout;horizontal=1;startSize=26;horizontalStack=0;resizeParent=1;resizeParentMax=0;resizeLast=0;collapsible=1;marginBottom=0;whiteSpace=wrap;html=1;" parent="1" vertex="1">
          <mxGeometry x="320" y="450" width="190" height="180" as="geometry" />
        </mxCell>
        <mxCell id="lhDiDhDEh2ELUVJOqSsH-22" value="+ message: String&lt;br&gt;+ type: MessageType&lt;br&gt;+ sender: User&lt;br&gt;+ receiver: User" style="text;strokeColor=none;fillColor=none;align=left;verticalAlign=top;spacingLeft=4;spacingRight=4;overflow=hidden;rotatable=0;points=[[0,0.5],[1,0.5]];portConstraint=eastwest;whiteSpace=wrap;html=1;" parent="lhDiDhDEh2ELUVJOqSsH-21" vertex="1">
          <mxGeometry y="26" width="190" height="64" as="geometry" />
        </mxCell>
        <mxCell id="lhDiDhDEh2ELUVJOqSsH-23" value="" style="line;strokeWidth=1;fillColor=none;align=left;verticalAlign=middle;spacingTop=-1;spacingLeft=3;spacingRight=3;rotatable=0;labelPosition=right;points=[];portConstraint=eastwest;strokeColor=inherit;" parent="lhDiDhDEh2ELUVJOqSsH-21" vertex="1">
          <mxGeometry y="90" width="190" height="8" as="geometry" />
        </mxCell>
        <mxCell id="lhDiDhDEh2ELUVJOqSsH-24" value="+ getType(): MessageType&lt;br&gt;+ getMessage(): String&lt;br&gt;+ getSender(): User&lt;br&gt;+ getReceiver(): User&lt;br&gt;+ toString(): String" style="text;strokeColor=none;fillColor=none;align=left;verticalAlign=top;spacingLeft=4;spacingRight=4;overflow=hidden;rotatable=0;points=[[0,0.5],[1,0.5]];portConstraint=eastwest;whiteSpace=wrap;html=1;" parent="lhDiDhDEh2ELUVJOqSsH-21" vertex="1">
          <mxGeometry y="98" width="190" height="82" as="geometry" />
        </mxCell>
        <mxCell id="lhDiDhDEh2ELUVJOqSsH-25" value="&amp;lt;&amp;lt;enum&amp;gt;&amp;gt;&lt;br&gt;MessageType" style="swimlane;fontStyle=1;align=center;verticalAlign=middle;childLayout=stackLayout;horizontal=1;startSize=40;horizontalStack=0;resizeParent=1;resizeParentMax=0;resizeLast=0;collapsible=0;marginBottom=0;html=1;whiteSpace=wrap;" parent="1" vertex="1">
          <mxGeometry x="130" y="477" width="140" height="100" as="geometry" />
        </mxCell>
        <mxCell id="lhDiDhDEh2ELUVJOqSsH-29" value="+ NORMAL&lt;br&gt;+ BLOCK&lt;br&gt;+ UNBLOCK" style="text;html=1;align=left;verticalAlign=middle;resizable=0;points=[];autosize=1;strokeColor=none;fillColor=none;" parent="lhDiDhDEh2ELUVJOqSsH-25" vertex="1">
          <mxGeometry y="40" width="140" height="60" as="geometry" />
        </mxCell>
        <mxCell id="-4Ks9Rl07-34GbYT_I4T-1" value="1..3" style="text;html=1;align=center;verticalAlign=middle;resizable=0;points=[];autosize=1;strokeColor=none;fillColor=none;" vertex="1" parent="1">
          <mxGeometry x="571" y="280" width="40" height="30" as="geometry" />
        </mxCell>
      </root>
    </mxGraphModel>
  </diagram>
</mxfile>
